<svg width="24" height="24" viewBox="0 0 24 24" fill="none" xmlns="http://www.w3.org/2000/svg">
<circle cx="12" cy="12" r="9.5" stroke="white"/>
<path d="M16.0169 12.8784L15.5487 13.054L16.0169 12.8784ZM15.7758 12.2354L15.3076 12.4109L15.7758 12.2354ZM17.9836 4.54937L13.1649 6.86594L13.5982 7.7672L18.4168 5.45063L17.9836 4.54937ZM13.1338 10.8759L14.5739 11.596L15.0211 10.7016L13.581 9.98149L13.1338 10.8759ZM15.3076 12.4109L15.5487 13.054L16.4851 12.7029L16.2439 12.0598L15.3076 12.4109ZM16.2239 18.2362L16.0025 20.4502L16.9975 20.5498L17.2189 18.3357L16.2239 18.2362ZM15.5487 13.054C16.1685 14.7067 16.3995 16.4799 16.2239 18.2362L17.2189 18.3357C17.4098 16.4267 17.1587 14.4993 16.4851 12.7029L15.5487 13.054ZM14.5739 11.596C14.9126 11.7653 15.1747 12.0564 15.3076 12.4109L16.2439 12.0598C16.0224 11.469 15.5856 10.9838 15.0211 10.7016L14.5739 11.596ZM12.346 7.53868C11.51 8.65329 11.8876 10.2528 13.1338 10.8759L13.581 9.98149C12.8929 9.63743 12.6844 8.75416 13.146 8.13868L12.346 7.53868ZM13.1649 6.86594C12.8419 7.02122 12.561 7.25197 12.346 7.53868L13.146 8.13868C13.2647 7.98036 13.4198 7.85294 13.5982 7.7672L13.1649 6.86594Z" fill="white"/>
<path d="M3 9.5L6.04398 8.94655C7.01616 8.76979 7.75174 9.80946 7.2615 10.6674V10.6674C6.87923 11.3364 7.24153 12.1854 7.98902 12.3723L9.91812 12.8545C11.2101 13.1775 11.8314 14.6493 11.1618 15.8004L10.4238 17.0693C10.1528 17.5351 10.0813 18.0905 10.2254 18.6098L11 21.4004" stroke="white"/>
</svg>
