<svg width="24" height="24" viewBox="0 0 24 24" fill="none" xmlns="http://www.w3.org/2000/svg">
<path fill-rule="evenodd" clip-rule="evenodd" d="M6 4C4.89543 4 4 4.89543 4 6V18C4 19.1046 4.89543 20 6 20H18C19.1046 20 20 19.1046 20 18V6C20 4.89543 19.1046 4 18 4H13V5V10.8697L15.2526 8.33551C15.6195 7.92272 16.2516 7.88554 16.6644 8.25246C17.0771 8.61938 17.1143 9.25145 16.7474 9.66423L12.7474 14.1642C12.5576 14.3777 12.2856 14.4999 12 14.4999C11.7144 14.4999 11.4424 14.3777 11.2526 14.1642L7.25259 9.66423C6.88567 9.25145 6.92285 8.61938 7.33564 8.25246C7.74842 7.88554 8.38049 7.92272 8.74741 8.33551L11 10.8697V5V4H6Z" fill="white"/>
</svg>
